<svg xmlns="http://www.w3.org/2000/svg" version="1.1" xmlns:xlink="http://www.w3.org/1999/xlink" width="200" height="200"><svg xmlns="http://www.w3.org/2000/svg" version="1.1" xmlns:xlink="http://www.w3.org/1999/xlink" viewBox="0 0 200 200"><rect width="200" height="200" fill="url('#gradient')"></rect><defs><linearGradient id="SvgjsLinearGradient1001" gradientTransform="rotate(45 0.5 0.5)"><stop offset="0%" stop-color="#dbd4c9"></stop><stop offset="100%" stop-color="#b95232"></stop></linearGradient></defs><g><g fill="#283855" transform="matrix(6.034124890061565,0,0,6.034124890061565,26.531787527058356,142.90200364046592)" stroke="#739bab" stroke-width="0.25"><path d="M9.89-8.57L9.89-6.03L4.50-6.03L4.50-2.64L10.87-2.64L10.87 0L1.07 0L1.07-14.22L10.89-14.22L10.89-11.57L4.50-11.57L4.50-8.57L9.89-8.57ZM18.04 0L12.27 0L12.27-14.22L17.37-14.22Q20.12-14.22 21.55-13.21Q22.98-12.21 22.98-10.29L22.98-10.29Q22.98-9.19 22.47-8.41Q21.96-7.63 20.98-7.26L20.98-7.26Q22.09-6.96 22.69-6.16Q23.28-5.36 23.28-4.21L23.28-4.21Q23.28-2.12 21.96-1.07Q20.63-0.02 18.04 0L18.04 0ZM18.10-6.04L15.69-6.04L15.69-2.64L17.94-2.64Q18.87-2.64 19.37-3.06Q19.86-3.49 19.86-4.26L19.86-4.26Q19.86-6.04 18.10-6.04L18.10-6.04ZM15.69-11.57L15.69-8.29L17.48-8.29Q18.60-8.30 19.08-8.70Q19.56-9.10 19.56-9.88L19.56-9.88Q19.56-10.78 19.04-11.18Q18.53-11.57 17.37-11.57L17.37-11.57L15.69-11.57Z"></path></g></g></svg><style>@media (prefers-color-scheme: light) { :root { filter: contrast(1) brightness(1); } }
@media (prefers-color-scheme: dark) { :root { filter: none; } }
</style></svg>